# Blender v2.91.0 OBJ File: 'button.blend'
# www.blender.org
mtllib button.mtl
o Circle
v 0.000000 -0.147093 -3.999999
v -0.780361 -0.147093 -3.923140
v -1.530734 -0.147093 -3.695517
v -2.222281 -0.147093 -3.325877
v -2.828427 -0.147093 -2.828426
v -3.325878 -0.147093 -2.222280
v -3.695518 -0.147093 -1.530733
v -3.923141 -0.147093 -0.780361
v -4.000000 -0.147093 0.000001
v -3.923141 -0.147093 0.780362
v -3.695518 -0.147093 1.530734
v -3.325878 -0.147093 2.222282
v -2.828427 -0.147093 2.828428
v -2.222281 -0.147093 3.325880
v -1.530733 -0.147093 3.695519
v -0.780360 -0.147093 3.923142
v 0.000002 -0.147093 4.000000
v 0.780363 -0.147093 3.923142
v 1.530736 -0.147093 3.695518
v 2.222283 -0.147093 3.325878
v 2.828429 -0.147093 2.828426
v 3.325880 -0.147093 2.222280
v 3.695520 -0.147093 1.530732
v 3.923142 -0.147093 0.780359
v 4.000000 -0.147093 -0.000003
v 3.923141 -0.147093 -0.780365
v 3.695517 -0.147093 -1.530737
v 3.325876 -0.147093 -2.222284
v 2.828424 -0.147093 -2.828430
v 2.222277 -0.147093 -3.325881
v 1.530729 -0.147093 -3.695519
v 0.780356 -0.147093 -3.923141
v 0.000000 0.252907 -3.599999
v -0.702325 0.252907 -3.530826
v -1.377660 0.252907 -3.325966
v -2.000053 0.252907 -2.993290
v -2.545584 0.252907 -2.545584
v -2.993291 0.252907 -2.000052
v -3.325966 0.252907 -1.377660
v -3.530827 0.252907 -0.702325
v -3.600000 0.252907 0.000000
v -3.530827 0.252907 0.702325
v -3.325966 0.252907 1.377661
v -2.993291 0.252907 2.000054
v -2.545584 0.252907 2.545585
v -2.000052 0.252907 2.993292
v -1.377660 0.252907 3.325968
v -0.702324 0.252907 3.530828
v 0.000001 0.252907 3.600001
v 0.702327 0.252907 3.530828
v 1.377662 0.252907 3.325967
v 2.000055 0.252907 2.993290
v 2.545586 0.252907 2.545583
v 2.993292 0.252907 2.000052
v 3.325968 0.252907 1.377658
v 3.530828 0.252907 0.702323
v 3.600001 0.252907 -0.000003
v 3.530827 0.252907 -0.702328
v 3.325965 0.252907 -1.377663
v 2.993289 0.252907 -2.000056
v 2.545582 0.252907 -2.545587
v 2.000049 0.252907 -2.993293
v 1.377656 0.252907 -3.325968
v 0.702320 0.252907 -3.530827
v 0.000000 0.252907 -3.240000
v -0.632093 0.252907 -3.177744
v -1.239894 0.252907 -2.993369
v -1.800048 0.252907 -2.693961
v -2.291026 0.252907 -2.291025
v -2.693962 0.252907 -1.800047
v -2.993370 0.252907 -1.239894
v -3.177744 0.252907 -0.632092
v -3.240000 0.252907 0.000000
v -3.177744 0.252907 0.632093
v -2.993370 0.252907 1.239895
v -2.693962 0.252907 1.800048
v -2.291026 0.252907 2.291027
v -1.800047 0.252907 2.693963
v -1.239894 0.252907 2.993371
v -0.632092 0.252907 3.177745
v 0.000001 0.252907 3.240001
v 0.632094 0.252907 3.177745
v 1.239896 0.252907 2.993370
v 1.800049 0.252907 2.693961
v 2.291028 0.252907 2.291025
v 2.693963 0.252907 1.800046
v 2.993371 0.252907 1.239893
v 3.177745 0.252907 0.632091
v 3.240001 0.252907 -0.000003
v 3.177744 0.252907 -0.632095
v 2.993369 0.252907 -1.239897
v 2.693960 0.252907 -1.800050
v 2.291023 0.252907 -2.291028
v 1.800044 0.252907 -2.693964
v 1.239890 0.252907 -2.993371
v 0.632088 0.252907 -3.177745
v 0.000000 -0.147093 -3.240000
v -0.632093 -0.147093 -3.177744
v -1.239894 -0.147093 -2.993369
v -1.800048 -0.147093 -2.693961
v -2.291026 -0.147093 -2.291025
v -2.693962 -0.147093 -1.800047
v -2.993370 -0.147093 -1.239894
v -3.177744 -0.147093 -0.632092
v -3.240000 -0.147093 0.000000
v -3.177744 -0.147093 0.632093
v -2.993370 -0.147093 1.239895
v -2.693962 -0.147093 1.800048
v -2.291026 -0.147093 2.291027
v -1.800047 -0.147093 2.693963
v -1.239894 -0.147093 2.993371
v -0.632092 -0.147093 3.177745
v 0.000001 -0.147093 3.240001
v 0.632094 -0.147093 3.177745
v 1.239896 -0.147093 2.993370
v 1.800049 -0.147093 2.693961
v 2.291028 -0.147093 2.291025
v 2.693963 -0.147093 1.800046
v 2.993371 -0.147093 1.239893
v 3.177745 -0.147093 0.632090
v 3.240001 -0.147093 -0.000003
v 3.177744 -0.147093 -0.632095
v 2.993369 -0.147093 -1.239897
v 2.693960 -0.147093 -1.800050
v 2.291023 -0.147093 -2.291028
v 1.800044 -0.147093 -2.693964
v 1.239890 -0.147093 -2.993371
v 0.632088 -0.147093 -3.177745
v -0.000000 -0.147093 -0.000000
vt 0.000000 0.000000
vt 0.000000 0.000000
vt 0.000000 0.000000
vt 0.000000 0.000000
vt 0.000000 0.000000
vt 0.000000 0.000000
vt 0.000000 0.000000
vt 0.000000 0.000000
vt 0.000000 0.000000
vt 0.000000 0.000000
vt 0.000000 0.000000
vt 0.000000 0.000000
vt 0.000000 0.000000
vt 0.000000 0.000000
vt 0.000000 0.000000
vt 0.000000 0.000000
vt 0.000000 0.000000
vt 0.000000 0.000000
vt 0.000000 0.000000
vt 0.000000 0.000000
vt 0.000000 0.000000
vt 0.000000 0.000000
vt 0.000000 0.000000
vt 0.000000 0.000000
vt 0.000000 0.000000
vt 0.000000 0.000000
vt 0.000000 0.000000
vt 0.000000 0.000000
vt 0.000000 0.000000
vt 0.000000 0.000000
vt 0.000000 0.000000
vt 0.000000 0.000000
vt 0.000000 0.000000
vt 0.000000 0.000000
vt 0.000000 0.000000
vt 0.000000 0.000000
vt 0.000000 0.000000
vt 0.000000 0.000000
vt 0.000000 0.000000
vt 0.000000 0.000000
vt 0.000000 0.000000
vt 0.000000 0.000000
vt 0.000000 0.000000
vt 0.000000 0.000000
vt 0.000000 0.000000
vt 0.000000 0.000000
vt 0.000000 0.000000
vt 0.000000 0.000000
vt 0.000000 0.000000
vt 0.000000 0.000000
vt 0.000000 0.000000
vt 0.000000 0.000000
vt 0.000000 0.000000
vt 0.000000 0.000000
vt 0.000000 0.000000
vt 0.000000 0.000000
vt 0.000000 0.000000
vt 0.000000 0.000000
vt 0.000000 0.000000
vt 0.000000 0.000000
vt 0.000000 0.000000
vt 0.000000 0.000000
vt 0.000000 0.000000
vt 0.000000 0.000000
vt 0.000000 0.000000
vt 0.000000 0.000000
vt 0.000000 0.000000
vt 0.000000 0.000000
vt 0.000000 0.000000
vt 0.000000 0.000000
vt 0.000000 0.000000
vt 0.000000 0.000000
vt 0.000000 0.000000
vt 0.000000 0.000000
vt 0.000000 0.000000
vt 0.000000 0.000000
vt 0.000000 0.000000
vt 0.000000 0.000000
vt 0.000000 0.000000
vt 0.000000 0.000000
vt 0.000000 0.000000
vt 0.000000 0.000000
vt 0.000000 0.000000
vt 0.000000 0.000000
vt 0.000000 0.000000
vt 0.000000 0.000000
vt 0.000000 0.000000
vt 0.000000 0.000000
vt 0.000000 0.000000
vt 0.000000 0.000000
vt 0.000000 0.000000
vt 0.000000 0.000000
vt 0.000000 0.000000
vt 0.000000 0.000000
vt 0.000000 0.000000
vt 0.000000 0.000000
vt 0.000000 0.000000
vt 0.000000 0.000000
vt 0.000000 0.000000
vt 0.000000 0.000000
vt 0.000000 0.000000
vt 0.000000 0.000000
vt 0.000000 0.000000
vt 0.000000 0.000000
vt 0.000000 0.000000
vt 0.000000 0.000000
vt 0.000000 0.000000
vt 0.000000 0.000000
vt 0.000000 0.000000
vt 0.000000 0.000000
vt 0.000000 0.000000
vt 0.000000 0.000000
vt 0.000000 0.000000
vt 0.000000 0.000000
vt 0.000000 0.000000
vt 0.000000 0.000000
vt 0.000000 0.000000
vt 0.000000 0.000000
vt 0.000000 0.000000
vt 0.000000 0.000000
vt 0.000000 0.000000
vt 0.000000 0.000000
vt 0.000000 0.000000
vt 0.000000 0.000000
vt 0.000000 0.000000
vt 0.000000 0.000000
vt 0.000000 0.000000
vt 0.000000 0.000000
vt 0.000000 0.000000
vn 0.6783 0.7054 -0.2058
vn -0.4497 0.7054 0.5479
vn 0.6251 0.7054 -0.3341
vn -0.3341 0.7054 0.6251
vn -0.0695 0.7054 -0.7054
vn 0.5479 0.7054 -0.4497
vn -0.2058 0.7054 0.6783
vn -0.2058 0.7054 -0.6783
vn 0.4497 0.7054 -0.5479
vn -0.0695 0.7054 0.7054
vn -0.3341 0.7054 -0.6251
vn 0.3341 0.7054 -0.6251
vn 0.0695 0.7054 0.7054
vn -0.4497 0.7054 -0.5479
vn 0.2058 0.7054 -0.6783
vn 0.2058 0.7054 0.6783
vn -0.5479 0.7054 -0.4497
vn 0.0695 0.7054 -0.7054
vn 0.3341 0.7054 0.6251
vn -0.6251 0.7054 -0.3341
vn 0.4497 0.7054 0.5479
vn -0.6783 0.7054 -0.2058
vn 0.5479 0.7054 0.4497
vn -0.7054 0.7054 -0.0695
vn 0.6251 0.7054 0.3341
vn -0.7054 0.7054 0.0695
vn 0.6783 0.7054 0.2058
vn -0.6783 0.7054 0.2058
vn 0.7054 0.7054 0.0695
vn -0.6251 0.7054 0.3341
vn 0.7054 0.7054 -0.0695
vn -0.5479 0.7054 0.4497
vn 0.0000 1.0000 0.0000
vn 0.9569 -0.0000 -0.2903
vn -0.9952 0.0000 -0.0980
vn 0.8819 0.0000 -0.4714
vn -0.9952 0.0000 0.0980
vn 0.7730 0.0000 -0.6344
vn -0.9569 0.0000 0.2903
vn 0.6344 0.0000 -0.7730
vn -0.8819 0.0000 0.4714
vn 0.4714 0.0000 -0.8819
vn 0.0980 0.0000 0.9952
vn -0.7730 0.0000 0.6344
vn 0.2903 0.0000 -0.9569
vn 0.2903 0.0000 0.9569
vn -0.6344 0.0000 0.7730
vn 0.0980 0.0000 -0.9952
vn 0.4714 0.0000 0.8819
vn -0.4714 0.0000 0.8819
vn -0.0980 0.0000 -0.9952
vn 0.6344 0.0000 0.7730
vn -0.2903 0.0000 0.9569
vn -0.2903 0.0000 -0.9569
vn 0.7730 0.0000 0.6344
vn -0.0980 0.0000 0.9952
vn -0.4714 0.0000 -0.8819
vn 0.8819 0.0000 0.4714
vn -0.6344 0.0000 -0.7730
vn 0.9569 -0.0000 0.2903
vn -0.7730 0.0000 -0.6344
vn 0.9952 -0.0000 0.0980
vn -0.8819 0.0000 -0.4714
vn 0.9952 -0.0000 -0.0980
vn -0.9569 0.0000 -0.2903
usemtl base
s off
f 27/1/1 59/2/1 58/3/1 26/4/1
f 14/5/2 46/6/2 45/7/2 13/8/2
f 28/9/3 60/10/3 59/2/3 27/1/3
f 15/11/4 47/12/4 46/6/4 14/5/4
f 2/13/5 34/14/5 33/15/5 1/16/5
f 29/17/6 61/18/6 60/10/6 28/9/6
f 16/19/7 48/20/7 47/12/7 15/11/7
f 3/21/8 35/22/8 34/14/8 2/13/8
f 30/23/9 62/24/9 61/18/9 29/17/9
f 17/25/10 49/26/10 48/20/10 16/19/10
f 4/27/11 36/28/11 35/22/11 3/21/11
f 31/29/12 63/30/12 62/24/12 30/23/12
f 18/31/13 50/32/13 49/26/13 17/25/13
f 5/33/14 37/34/14 36/28/14 4/27/14
f 32/35/15 64/36/15 63/30/15 31/29/15
f 19/37/16 51/38/16 50/32/16 18/31/16
f 6/39/17 38/40/17 37/34/17 5/33/17
f 1/16/18 33/15/18 64/36/18 32/35/18
f 20/41/19 52/42/19 51/38/19 19/37/19
f 7/43/20 39/44/20 38/40/20 6/39/20
f 21/45/21 53/46/21 52/42/21 20/41/21
f 8/47/22 40/48/22 39/44/22 7/43/22
f 22/49/23 54/50/23 53/46/23 21/45/23
f 9/51/24 41/52/24 40/48/24 8/47/24
f 23/53/25 55/54/25 54/50/25 22/49/25
f 10/55/26 42/56/26 41/52/26 9/51/26
f 24/57/27 56/58/27 55/54/27 23/53/27
f 11/59/28 43/60/28 42/56/28 10/55/28
f 25/61/29 57/62/29 56/58/29 24/57/29
f 12/63/30 44/64/30 43/60/30 11/59/30
f 26/4/31 58/3/31 57/62/31 25/61/31
f 13/8/32 45/7/32 44/64/32 12/63/32
f 40/48/33 72/65/33 71/66/33 39/44/33
f 54/50/33 86/67/33 85/68/33 53/46/33
f 41/52/33 73/69/33 72/65/33 40/48/33
f 55/54/33 87/70/33 86/67/33 54/50/33
f 42/56/33 74/71/33 73/69/33 41/52/33
f 56/58/33 88/72/33 87/70/33 55/54/33
f 43/60/33 75/73/33 74/71/33 42/56/33
f 57/62/33 89/74/33 88/72/33 56/58/33
f 44/64/33 76/75/33 75/73/33 43/60/33
f 58/3/33 90/76/33 89/74/33 57/62/33
f 45/7/33 77/77/33 76/75/33 44/64/33
f 59/2/33 91/78/33 90/76/33 58/3/33
f 46/6/33 78/79/33 77/77/33 45/7/33
f 60/10/33 92/80/33 91/78/33 59/2/33
f 47/12/33 79/81/33 78/79/33 46/6/33
f 34/14/33 66/82/33 65/83/33 33/15/33
f 61/18/33 93/84/33 92/80/33 60/10/33
f 48/20/33 80/85/33 79/81/33 47/12/33
f 35/22/33 67/86/33 66/82/33 34/14/33
f 62/24/33 94/87/33 93/84/33 61/18/33
f 49/26/33 81/88/33 80/85/33 48/20/33
f 36/28/33 68/89/33 67/86/33 35/22/33
f 63/30/33 95/90/33 94/87/33 62/24/33
f 50/32/33 82/91/33 81/88/33 49/26/33
f 37/34/33 69/92/33 68/89/33 36/28/33
f 64/36/33 96/93/33 95/90/33 63/30/33
f 51/38/33 83/94/33 82/91/33 50/32/33
f 38/40/33 70/95/33 69/92/33 37/34/33
f 33/15/33 65/83/33 96/93/33 64/36/33
f 52/42/33 84/96/33 83/94/33 51/38/33
f 39/44/33 71/66/33 70/95/33 38/40/33
f 53/46/33 85/68/33 84/96/33 52/42/33
f 75/73/34 107/97/34 106/98/34 74/71/34
f 89/74/35 121/99/35 120/100/35 88/72/35
f 76/75/36 108/101/36 107/97/36 75/73/36
f 90/76/37 122/102/37 121/99/37 89/74/37
f 77/77/38 109/103/38 108/101/38 76/75/38
f 91/78/39 123/104/39 122/102/39 90/76/39
f 78/79/40 110/105/40 109/103/40 77/77/40
f 92/80/41 124/106/41 123/104/41 91/78/41
f 79/81/42 111/107/42 110/105/42 78/79/42
f 66/82/43 98/108/43 97/109/43 65/83/43
f 93/84/44 125/110/44 124/106/44 92/80/44
f 80/85/45 112/111/45 111/107/45 79/81/45
f 67/86/46 99/112/46 98/108/46 66/82/46
f 94/87/47 126/113/47 125/110/47 93/84/47
f 81/88/48 113/114/48 112/111/48 80/85/48
f 68/89/49 100/115/49 99/112/49 67/86/49
f 95/90/50 127/116/50 126/113/50 94/87/50
f 82/91/51 114/117/51 113/114/51 81/88/51
f 69/92/52 101/118/52 100/115/52 68/89/52
f 96/93/53 128/119/53 127/116/53 95/90/53
f 83/94/54 115/120/54 114/117/54 82/91/54
f 70/95/55 102/121/55 101/118/55 69/92/55
f 65/83/56 97/109/56 128/119/56 96/93/56
f 84/96/57 116/122/57 115/120/57 83/94/57
f 71/66/58 103/123/58 102/121/58 70/95/58
f 85/68/59 117/124/59 116/122/59 84/96/59
f 72/65/60 104/125/60 103/123/60 71/66/60
f 86/67/61 118/126/61 117/124/61 85/68/61
f 73/69/62 105/127/62 104/125/62 72/65/62
f 87/70/63 119/128/63 118/126/63 86/67/63
f 74/71/64 106/98/64 105/127/64 73/69/64
f 88/72/65 120/100/65 119/128/65 87/70/65
f 112/111/33 129/129/33 111/107/33
f 99/112/33 129/129/33 98/108/33
f 126/113/33 129/129/33 125/110/33
f 113/114/33 129/129/33 112/111/33
f 100/115/33 129/129/33 99/112/33
f 127/116/33 129/129/33 126/113/33
f 114/117/33 129/129/33 113/114/33
f 101/118/33 129/129/33 100/115/33
f 128/119/33 129/129/33 127/116/33
f 115/120/33 129/129/33 114/117/33
f 102/121/33 129/129/33 101/118/33
f 97/109/33 129/129/33 128/119/33
f 116/122/33 129/129/33 115/120/33
f 103/123/33 129/129/33 102/121/33
f 117/124/33 129/129/33 116/122/33
f 104/125/33 129/129/33 103/123/33
f 118/126/33 129/129/33 117/124/33
f 105/127/33 129/129/33 104/125/33
f 119/128/33 129/129/33 118/126/33
f 106/98/33 129/129/33 105/127/33
f 120/100/33 129/129/33 119/128/33
f 107/97/33 129/129/33 106/98/33
f 121/99/33 129/129/33 120/100/33
f 108/101/33 129/129/33 107/97/33
f 122/102/33 129/129/33 121/99/33
f 109/103/33 129/129/33 108/101/33
f 123/104/33 129/129/33 122/102/33
f 110/105/33 129/129/33 109/103/33
f 124/106/33 129/129/33 123/104/33
f 111/107/33 129/129/33 110/105/33
f 98/108/33 129/129/33 97/109/33
f 125/110/33 129/129/33 124/106/33
o Circle.001
v 0.000000 0.247347 -3.116567
v -0.608012 0.247347 -3.056682
v -1.192658 0.247347 -2.879332
v -1.731471 0.247347 -2.591331
v -2.203745 0.247347 -2.203745
v -2.591330 0.247347 -1.731471
v -2.879331 0.247347 -1.192657
v -3.056682 0.247347 -0.608012
v -3.116566 0.247347 0.000000
v -3.056682 0.247347 0.608012
v -2.879332 0.247347 1.192658
v -2.591330 0.247347 1.731472
v -2.203745 0.247347 2.203745
v -1.731471 0.247347 2.591331
v -1.192658 0.247347 2.879333
v -0.608011 0.247347 3.056683
v 0.000001 0.247347 3.116567
v 0.608014 0.247347 3.056682
v 1.192660 0.247347 2.879332
v 1.731473 0.247347 2.591330
v 2.203748 0.247347 2.203744
v 2.591332 0.247347 1.731470
v 2.879333 0.247347 1.192657
v 3.056684 0.247347 0.608010
v 3.116568 0.247347 -0.000002
v 3.056683 0.247347 -0.608015
v 2.879332 0.247347 -1.192661
v 2.591329 0.247347 -1.731474
v 2.203743 0.247347 -2.203748
v 1.731468 0.247347 -2.591332
v 1.192655 0.247347 -2.879333
v 0.608008 0.247347 -3.056683
v 0.000000 -0.115781 -3.116566
v -0.608012 -0.115781 -3.056682
v -1.192658 -0.115781 -2.879332
v -1.731471 -0.115781 -2.591330
v -2.203745 -0.115781 -2.203744
v -2.591330 -0.115781 -1.731471
v -2.879331 -0.115781 -1.192657
v -3.056682 -0.115781 -0.608011
v -3.116566 -0.115781 0.000001
v -3.056682 -0.115781 0.608013
v -2.879332 -0.115781 1.192659
v -2.591330 -0.115781 1.731472
v -2.203745 -0.115781 2.203746
v -1.731471 -0.115781 2.591331
v -1.192658 -0.115781 2.879333
v -0.608011 -0.115781 3.056684
v 0.000001 -0.115781 3.116568
v 0.608014 -0.115781 3.056683
v 1.192660 -0.115781 2.879333
v 1.731473 -0.115781 2.591331
v 2.203748 -0.115781 2.203744
v 2.591332 -0.115781 1.731471
v 2.879333 -0.115781 1.192657
v 3.056684 -0.115781 0.608010
v 3.116568 -0.115781 -0.000002
v 3.056683 -0.115781 -0.608014
v 2.879332 -0.115781 -1.192661
v 2.591329 -0.115781 -1.731474
v 2.203743 -0.115781 -2.203747
v 1.731468 -0.115781 -2.591332
v 1.192655 -0.115781 -2.879333
v 0.608008 -0.115781 -3.056683
v 0.000000 0.376995 -2.909380
v -0.567592 0.376995 -2.853477
v -1.113371 0.376995 -2.687917
v -1.616364 0.376995 -2.419061
v -2.057242 0.376995 -2.057242
v -2.419061 0.376995 -1.616364
v -2.687916 0.376995 -1.113371
v -2.853477 0.376995 -0.567592
v -2.909380 0.376995 0.000000
v -2.853477 0.376995 0.567592
v -2.687916 0.376995 1.113372
v -2.419061 0.376995 1.616365
v -2.057242 0.376995 2.057242
v -1.616364 0.376995 2.419061
v -1.113371 0.376995 2.687917
v -0.567591 0.376995 2.853477
v 0.000001 0.376995 2.909380
v 0.567593 0.376995 2.853477
v 1.113373 0.376995 2.687916
v 1.616367 0.376995 2.419060
v 2.057244 0.376995 2.057240
v 2.419063 0.376995 1.616364
v 2.687919 0.376995 1.113370
v 2.853478 0.376995 0.567590
v 2.909381 0.376995 -0.000002
v 2.853477 0.376995 -0.567594
v 2.687916 0.376995 -1.113374
v 2.419060 0.376995 -1.616367
v 2.057240 0.376995 -2.057245
v 1.616362 0.376995 -2.419063
v 1.113368 0.376995 -2.687918
v 0.567588 0.376995 -2.853477
vt 0.000000 0.000000
vt 0.000000 0.000000
vt 0.000000 0.000000
vt 0.000000 0.000000
vt 0.000000 0.000000
vt 0.000000 0.000000
vt 0.000000 0.000000
vt 0.000000 0.000000
vt 0.000000 0.000000
vt 0.000000 0.000000
vt 0.000000 0.000000
vt 0.000000 0.000000
vt 0.000000 0.000000
vt 0.000000 0.000000
vt 0.000000 0.000000
vt 0.000000 0.000000
vt 0.000000 0.000000
vt 0.000000 0.000000
vt 0.000000 0.000000
vt 0.000000 0.000000
vt 0.000000 0.000000
vt 0.000000 0.000000
vt 0.000000 0.000000
vt 0.000000 0.000000
vt 0.000000 0.000000
vt 0.000000 0.000000
vt 0.000000 0.000000
vt 0.000000 0.000000
vt 0.000000 0.000000
vt 0.000000 0.000000
vt 0.000000 0.000000
vt 0.000000 0.000000
vt 0.000000 0.000000
vt 0.000000 0.000000
vt 0.000000 0.000000
vt 0.000000 0.000000
vt 0.000000 0.000000
vt 0.000000 0.000000
vt 0.000000 0.000000
vt 0.000000 0.000000
vt 0.000000 0.000000
vt 0.000000 0.000000
vt 0.000000 0.000000
vt 0.000000 0.000000
vt 0.000000 0.000000
vt 0.000000 0.000000
vt 0.000000 0.000000
vt 0.000000 0.000000
vt 0.000000 0.000000
vt 0.000000 0.000000
vt 0.000000 0.000000
vt 0.000000 0.000000
vt 0.000000 0.000000
vt 0.000000 0.000000
vt 0.000000 0.000000
vt 0.000000 0.000000
vt 0.000000 0.000000
vt 0.000000 0.000000
vt 0.000000 0.000000
vt 0.000000 0.000000
vt 0.000000 0.000000
vt 0.000000 0.000000
vt 0.000000 0.000000
vt 0.000000 0.000000
vt 0.000000 0.000000
vt 0.000000 0.000000
vt 0.000000 0.000000
vt 0.000000 0.000000
vt 0.000000 0.000000
vt 0.000000 0.000000
vt 0.000000 0.000000
vt 0.000000 0.000000
vt 0.000000 0.000000
vt 0.000000 0.000000
vt 0.000000 0.000000
vt 0.000000 0.000000
vt 0.000000 0.000000
vt 0.000000 0.000000
vt 0.000000 0.000000
vt 0.000000 0.000000
vt 0.000000 0.000000
vt 0.000000 0.000000
vt 0.000000 0.000000
vt 0.000000 0.000000
vt 0.000000 0.000000
vt 0.000000 0.000000
vt 0.000000 0.000000
vt 0.000000 0.000000
vt 0.000000 0.000000
vt 0.000000 0.000000
vt 0.000000 0.000000
vt 0.000000 0.000000
vt 0.000000 0.000000
vt 0.000000 0.000000
vt 0.000000 0.000000
vt 0.000000 0.000000
vn 0.4115 0.8466 -0.3377
vn 0.0000 -1.0000 0.0000
vn 0.9952 0.0000 -0.0980
vn -0.7730 0.0000 0.6344
vn 0.9569 0.0000 -0.2903
vn -0.6344 0.0000 0.7730
vn 0.8819 -0.0000 -0.4714
vn -0.4714 0.0000 0.8819
vn -0.0980 -0.0000 -0.9952
vn 0.7730 -0.0000 -0.6344
vn -0.2903 0.0000 0.9569
vn -0.2903 -0.0000 -0.9569
vn 0.6344 -0.0000 -0.7730
vn -0.0980 0.0000 0.9952
vn -0.4714 -0.0000 -0.8819
vn 0.4714 -0.0000 -0.8819
vn 0.0980 0.0000 0.9952
vn -0.6344 -0.0000 -0.7730
vn 0.2903 -0.0000 -0.9569
vn 0.2903 0.0000 0.9569
vn -0.7730 -0.0000 -0.6344
vn 0.0980 -0.0000 -0.9952
vn 0.4714 0.0000 0.8819
vn -0.8819 -0.0000 -0.4714
vn 0.6344 0.0000 0.7730
vn -0.9569 0.0000 -0.2903
vn 0.7730 0.0000 0.6344
vn -0.9952 -0.0000 -0.0980
vn 0.8819 0.0000 0.4714
vn -0.9952 0.0000 0.0980
vn 0.9569 0.0000 0.2903
vn -0.9569 0.0000 0.2903
vn 0.9952 0.0000 0.0980
vn -0.8819 0.0000 0.4714
vn 0.0000 1.0000 -0.0000
vn -0.1545 0.8466 0.5094
vn -0.1545 0.8466 -0.5094
vn 0.3377 0.8466 -0.4115
vn -0.0522 0.8466 0.5297
vn -0.2509 0.8466 -0.4694
vn 0.2509 0.8466 -0.4694
vn 0.0522 0.8466 0.5297
vn -0.3377 0.8466 -0.4115
vn 0.1545 0.8466 -0.5094
vn 0.1545 0.8466 0.5094
vn -0.4115 0.8466 -0.3377
vn 0.0522 0.8466 -0.5297
vn 0.2509 0.8466 0.4694
vn -0.4694 0.8466 -0.2509
vn 0.3377 0.8466 0.4115
vn -0.5094 0.8466 -0.1545
vn 0.4115 0.8466 0.3377
vn -0.5297 0.8466 -0.0522
vn 0.4694 0.8466 0.2509
vn -0.5297 0.8466 0.0522
vn 0.5094 0.8466 0.1545
vn -0.5094 0.8466 0.1545
vn 0.5297 0.8466 0.0522
vn -0.4694 0.8466 0.2509
vn 0.5297 0.8466 -0.0522
vn -0.4115 0.8466 0.3377
vn 0.5094 0.8466 -0.1545
vn -0.3377 0.8466 0.4115
vn 0.4694 0.8466 -0.2509
vn -0.2509 0.8466 0.4694
vn -0.0522 0.8466 -0.5297
usemtl button
s off
f 157/130/66 158/131/66 222/132/66 221/133/66
f 163/134/67 162/135/67 193/136/67 192/137/67 191/138/67 190/139/67 189/140/67 188/141/67 187/142/67 186/143/67 185/144/67 184/145/67 183/146/67 182/147/67 181/148/67 180/149/67 179/150/67 178/151/67 177/152/67 176/153/67 175/154/67 174/155/67 173/156/67 172/157/67 171/158/67 170/159/67 169/160/67 168/161/67 167/162/67 166/163/67 165/164/67 164/165/67
f 155/166/68 154/167/68 186/143/68 187/142/68
f 142/168/69 141/169/69 173/156/69 174/155/69
f 156/170/70 155/166/70 187/142/70 188/141/70
f 143/171/71 142/168/71 174/155/71 175/154/71
f 157/130/72 156/170/72 188/141/72 189/140/72
f 144/172/73 143/171/73 175/154/73 176/153/73
f 131/173/74 130/174/74 162/135/74 163/134/74
f 158/131/75 157/130/75 189/140/75 190/139/75
f 145/175/76 144/172/76 176/153/76 177/152/76
f 132/176/77 131/173/77 163/134/77 164/165/77
f 159/177/78 158/131/78 190/139/78 191/138/78
f 146/178/79 145/175/79 177/152/79 178/151/79
f 133/179/80 132/176/80 164/165/80 165/164/80
f 160/180/81 159/177/81 191/138/81 192/137/81
f 147/181/82 146/178/82 178/151/82 179/150/82
f 134/182/83 133/179/83 165/164/83 166/163/83
f 161/183/84 160/180/84 192/137/84 193/136/84
f 148/184/85 147/181/85 179/150/85 180/149/85
f 135/185/86 134/182/86 166/163/86 167/162/86
f 130/174/87 161/183/87 193/136/87 162/135/87
f 149/186/88 148/184/88 180/149/88 181/148/88
f 136/187/89 135/185/89 167/162/89 168/161/89
f 150/188/90 149/186/90 181/148/90 182/147/90
f 137/189/91 136/187/91 168/161/91 169/160/91
f 151/190/92 150/188/92 182/147/92 183/146/92
f 138/191/93 137/189/93 169/160/93 170/159/93
f 152/192/94 151/190/94 183/146/94 184/145/94
f 139/193/95 138/191/95 170/159/95 171/158/95
f 153/194/96 152/192/96 184/145/96 185/144/96
f 140/195/97 139/193/97 171/158/97 172/157/97
f 154/167/98 153/194/98 185/144/98 186/143/98
f 141/169/99 140/195/99 172/157/99 173/156/99
f 195/196/100 196/197/100 197/198/100 198/199/100 199/200/100 200/201/100 201/202/100 202/203/100 203/204/100 204/205/100 205/206/100 206/207/100 207/208/100 208/209/100 209/210/100 210/211/100 211/212/100 212/213/100 213/214/100 214/215/100 215/216/100 216/217/100 217/218/100 218/219/100 219/220/100 220/221/100 221/133/100 222/132/100 223/222/100 224/223/100 225/224/100 194/225/100
f 144/172/101 145/175/101 209/210/101 208/209/101
f 131/173/102 132/176/102 196/197/102 195/196/102
f 158/131/103 159/177/103 223/222/103 222/132/103
f 145/175/104 146/178/104 210/211/104 209/210/104
f 132/176/105 133/179/105 197/198/105 196/197/105
f 159/177/106 160/180/106 224/223/106 223/222/106
f 146/178/107 147/181/107 211/212/107 210/211/107
f 133/179/108 134/182/108 198/199/108 197/198/108
f 160/180/109 161/183/109 225/224/109 224/223/109
f 147/181/110 148/184/110 212/213/110 211/212/110
f 134/182/111 135/185/111 199/200/111 198/199/111
f 161/183/112 130/174/112 194/225/112 225/224/112
f 148/184/113 149/186/113 213/214/113 212/213/113
f 135/185/114 136/187/114 200/201/114 199/200/114
f 149/186/115 150/188/115 214/215/115 213/214/115
f 136/187/116 137/189/116 201/202/116 200/201/116
f 150/188/117 151/190/117 215/216/117 214/215/117
f 137/189/118 138/191/118 202/203/118 201/202/118
f 151/190/119 152/192/119 216/217/119 215/216/119
f 138/191/120 139/193/120 203/204/120 202/203/120
f 152/192/121 153/194/121 217/218/121 216/217/121
f 139/193/122 140/195/122 204/205/122 203/204/122
f 153/194/123 154/167/123 218/219/123 217/218/123
f 140/195/124 141/169/124 205/206/124 204/205/124
f 154/167/125 155/166/125 219/220/125 218/219/125
f 141/169/126 142/168/126 206/207/126 205/206/126
f 155/166/127 156/170/127 220/221/127 219/220/127
f 142/168/128 143/171/128 207/208/128 206/207/128
f 156/170/129 157/130/129 221/133/129 220/221/129
f 143/171/130 144/172/130 208/209/130 207/208/130
f 130/174/131 131/173/131 195/196/131 194/225/131
