# Blender v2.91.0 OBJ File: 'dog_shed.blend'
# www.blender.org
mtllib dog_shed.mtl
o Cube_Cube.001
v 0.255279 -0.001048 0.646882
v -0.266759 -0.001048 0.646882
v -0.505740 0.008952 0.730066
v -0.495740 -0.001048 0.740066
v -0.495740 0.964039 0.740066
v -0.487712 0.988952 0.740066
v -0.483134 1.008952 0.740066
v -0.499013 1.006351 0.730066
v -0.505740 0.988952 0.730066
v -0.495740 -0.001048 -0.749934
v -0.505740 0.008952 -0.749934
v -0.495740 0.008952 -0.759934
v -0.499013 1.006351 -0.749934
v -0.483134 1.008952 -0.759934
v -0.495740 0.988952 -0.759934
v -0.505740 0.988952 -0.749934
v 0.494260 0.008952 0.730066
v 0.484260 -0.001048 0.740066
v 0.487533 1.006351 0.730066
v 0.471655 1.008952 0.740066
v 0.476232 0.988952 0.740066
v 0.484260 0.964039 0.740066
v 0.494260 0.988952 0.730066
v 0.484260 -0.001048 -0.749934
v 0.484260 0.008952 -0.759934
v 0.494260 0.008952 -0.749934
v 0.471655 1.008952 -0.759934
v 0.487533 1.006351 -0.749934
v 0.494260 0.988952 -0.749934
v 0.484260 0.988952 -0.759934
v -0.005740 1.534086 0.740066
v 0.000987 1.541552 0.730066
v -0.005740 1.534086 -0.759934
v -0.266759 -0.001048 0.730066
v -0.276759 -0.001048 0.740066
v -0.276759 0.613134 0.740066
v -0.266759 0.605999 0.730066
v -0.259024 0.622337 0.730066
v -0.264298 0.630944 0.740066
v 0.265279 -0.001048 0.740066
v 0.255279 -0.001048 0.730066
v 0.247544 0.622337 0.730066
v 0.255279 0.605999 0.730066
v 0.265279 0.613134 0.740066
v 0.252818 0.630944 0.740066
v -0.196796 0.670471 0.730066
v -0.211213 0.674443 0.740066
v -0.213475 0.659661 0.730066
v 0.201995 0.659661 0.730066
v 0.199733 0.674443 0.740066
v 0.185316 0.670471 0.730066
v -0.095740 0.715999 0.730066
v -0.108101 0.725999 0.740066
v -0.114684 0.711527 0.730066
v 0.103204 0.711527 0.730066
v 0.096621 0.725999 0.740066
v 0.084260 0.715999 0.730066
v 0.103204 0.711527 0.646882
v 0.084260 0.715999 0.646882
v -0.095740 0.715999 0.646882
v -0.114684 0.711527 0.646882
v 0.201995 0.659661 0.646882
v 0.185316 0.670471 0.646882
v -0.196796 0.670471 0.646882
v -0.213475 0.659661 0.646882
v 0.255279 0.605999 0.646882
v 0.247544 0.622337 0.646882
v -0.259024 0.622337 0.646882
v -0.266759 0.605999 0.646882
v -0.483134 1.008952 0.740066
v -0.499013 1.006351 0.730066
v -0.499013 1.006351 -0.749934
v -0.483134 1.008952 -0.759934
v 0.471655 1.008952 -0.759934
v 0.487533 1.006351 -0.749934
v 0.000987 1.541552 0.730066
v -0.012467 1.541552 0.730066
v -0.005740 1.534086 0.740066
v -0.012467 1.541552 -0.749934
v 0.000987 1.541552 -0.749934
v -0.005740 1.534086 -0.759934
v 0.487533 1.006351 0.730066
vt 0.594243 0.000000
vt 0.359308 0.000000
vt 0.015692 0.000000
vt 0.022854 0.000000
vt 0.625000 0.492076
vt 0.625000 0.253379
vt 0.625000 0.253379
vt 0.594243 0.718617
vt 0.022854 0.031383
vt 0.015692 0.031383
vt 0.359308 0.718617
vt 0.377500 0.002500
vt 0.622500 0.002500
vt 0.622500 0.247500
vt 0.377500 0.247500
vt 0.000000 0.000000
vt 0.000000 0.000000
vt 0.000000 0.000000
vt 0.000000 0.000000
vt 0.377500 0.502500
vt 0.622500 0.502500
vt 0.622500 0.747500
vt 0.377500 0.747500
vt 0.608326 0.721825
vt 0.608326 0.008166
vt 0.017863 0.003499
vt 0.024522 0.008125
vt 0.031616 0.014755
vt 0.031616 0.023185
vt 0.024522 0.021302
vt 0.017863 0.017937
vt 0.377500 0.252500
vt 0.622500 0.252500
vt 0.622500 0.497500
vt 0.377500 0.497500
vt 0.000000 0.000000
vt 0.000000 0.000000
vt 0.000000 0.000000
vt 0.000000 0.000000
vt 0.000000 0.000000
vt 0.000000 0.000000
vt 0.000000 0.000000
vt 0.000000 0.000000
vt 0.625000 0.253379
vt 0.625000 0.492076
vt 0.625000 0.011587
vt 0.625000 0.738413
vt 0.625000 0.738413
vt 0.625000 0.011587
vt 0.000000 0.000000
vt 0.000000 0.000000
vt 0.000000 0.000000
vt 0.000000 0.000000
vt 0.000000 0.000000
vt 0.000000 0.000000
vt 0.000000 0.000000
vt 0.000000 0.000000
vt 0.000000 0.000000
vt 0.000000 0.000000
vt 0.000000 0.000000
vt 0.000000 0.000000
vt 0.000000 0.000000
vt 0.000000 0.000000
vt 0.000000 0.000000
vt 0.000000 0.000000
vt 0.625000 0.010136
vt 0.625000 0.726228
vt 0.625000 0.010136
vt 0.625000 0.002500
vt 0.127500 0.502500
vt 0.125000 0.502500
vt 0.127500 0.500000
vt 0.625000 0.247500
vt 0.372500 0.502500
vt 0.372500 0.500000
vt 0.375000 0.502500
vt 0.625000 0.498134
vt 0.625000 0.253379
vt 0.625000 0.002500
vt 0.625000 0.247500
vt 0.127500 0.750000
vt 0.125000 0.747500
vt 0.372500 0.750000
vt 0.625000 0.498134
vt 0.625000 0.010136
vt 0.625000 0.010136
vt 0.625000 0.251866
vt 0.625000 0.002500
vt 0.625000 0.247500
vn 0.0000 0.0000 1.0000
vn 0.0000 0.0000 -1.0000
vn -1.0000 0.0000 0.0000
vn 1.0000 0.0000 0.0000
vn 0.4472 -0.8944 0.0000
vn 0.6338 -0.7735 0.0000
vn -0.6338 -0.7735 0.0000
vn -0.4472 -0.8944 0.0000
vn 0.0000 -1.0000 0.0000
vn -0.4977 0.1544 0.8535
vn -0.5774 -0.5774 -0.5774
vn -0.6006 0.3105 -0.7368
vn 0.4977 0.1544 0.8535
vn 0.5773 -0.5774 -0.5774
vn 0.6006 0.3105 -0.7368
vn 0.5912 -0.3497 0.7268
vn -0.5912 -0.3497 0.7268
vn 0.3627 -0.5596 0.7452
vn -0.3627 -0.5596 0.7452
vn 0.1430 -0.6058 0.7826
vn -0.1430 -0.6058 0.7826
vn -0.7071 -0.7071 0.0000
vn -0.7071 0.0000 0.7071
vn -0.9327 0.3606 0.0000
vn -0.7071 0.0000 -0.7071
vn 0.0000 -0.7071 -0.7071
vn 0.7071 0.0000 -0.7071
vn 0.7071 -0.7071 0.0000
vn 0.9327 0.3606 0.0000
vn 0.7071 0.0000 0.7071
vn -0.4482 -0.5469 0.7071
vn -0.3162 -0.6325 0.7071
vn 0.0000 -0.7071 0.7071
vn 0.3162 -0.6325 0.7071
vn 0.4482 -0.5469 0.7071
vn 0.9038 -0.4279 0.0000
vn 0.2298 -0.9732 0.0000
vn -0.2298 -0.9732 0.0000
vn -0.5439 -0.8392 0.0000
vn -0.9038 -0.4279 0.0000
vn 0.5439 -0.8392 0.0000
vn 0.0000 1.0000 0.0000
vn 0.5232 0.4757 0.7071
vn 0.7399 0.6727 -0.0000
vn -0.7399 0.6727 0.0000
vn 0.0000 0.8013 0.5983
vn 0.0000 0.8013 -0.5983
vn -0.5232 0.4757 -0.7071
vn 0.5232 0.4757 -0.7071
vn -0.5232 0.4757 0.7071
usemtl shed
s off
f 5/1/1 4/2/1 35/3/1 36/4/1
f 27/5/2 14/6/2 33/7/2
f 22/8/1 44/9/1 40/10/1 18/11/1
f 3/12/3 9/13/3 16/14/3 11/15/3
f 69/16/4 37/17/4 34/18/4 2/19/4
f 26/20/4 29/21/4 23/22/4 17/23/4
f 21/24/1 6/25/1 39/26/1 47/27/1 53/28/1 56/29/1 50/30/1 45/31/1
f 12/32/2 15/33/2 30/34/2 25/35/2
f 54/36/5 46/37/5 64/38/5 61/39/5
f 38/40/6 68/41/6 65/42/6 48/43/6
f 27/5/1 33/7/1 81/44/1 74/45/1
f 32/46/1 19/47/1 82/48/1 76/49/1
f 42/50/7 49/51/7 62/52/7 67/53/7
f 55/54/8 58/55/8 63/56/8 51/57/8
f 41/58/3 43/59/3 66/60/3 1/61/3
f 57/62/9 52/63/9 60/64/9 59/65/9
f 7/66/1 20/67/1 31/68/1
f 5/1/10 6/25/10 7/66/10 8/69/10 9/13/10
f 10/70/11 11/71/11 12/72/11
f 13/73/12 14/6/12 15/33/12 16/14/12
f 19/47/13 20/67/13 21/24/13 22/8/13 23/22/13
f 24/74/14 25/75/14 26/76/14
f 27/5/15 28/77/15 29/21/15 30/34/15
f 33/7/1 14/6/1 73/78/1 81/44/1
f 13/73/1 8/69/1 71/79/1 72/80/1
f 36/4/16 37/17/16 38/40/16 39/26/16
f 42/50/17 43/59/17 44/9/17 45/31/17
f 46/37/18 47/27/18 48/43/18
f 49/51/19 50/30/19 51/57/19
f 52/63/20 53/28/20 54/36/20
f 55/54/21 56/29/21 57/62/21
f 10/70/22 4/81/22 3/82/22 11/71/22
f 4/2/23 5/1/23 9/13/23 3/12/23
f 8/69/24 13/73/24 16/14/24 9/13/24
f 15/33/25 12/32/25 11/15/25 16/14/25
f 24/74/26 10/70/26 12/72/26 25/75/26
f 14/6/2 27/5/2 30/34/2 15/33/2
f 29/21/27 26/20/27 25/35/27 30/34/27
f 18/83/28 24/74/28 26/20/28 17/23/28
f 28/77/29 19/47/29 23/22/29 29/21/29
f 22/8/30 18/11/30 17/23/30 23/22/30
f 20/67/1 7/66/1 6/25/1 21/24/1
f 28/77/1 27/5/1 74/45/1 75/84/1
f 7/66/1 31/68/1 78/85/1 70/86/1
f 19/47/1 28/77/1 75/84/1 82/48/1
f 8/69/1 7/66/1 70/86/1 71/79/1
f 49/51/31 42/50/31 45/31/31 50/30/31
f 55/54/32 51/57/32 50/30/32 56/29/32
f 39/26/1 6/25/1 5/1/1 36/4/1
f 44/9/1 22/8/1 21/24/1 45/31/1
f 52/63/33 57/62/33 56/29/33 53/28/33
f 53/28/34 47/27/34 46/37/34 54/36/34
f 38/40/35 48/43/35 47/27/35 39/26/35
f 34/18/30 37/17/30 36/4/30 35/3/30
f 40/10/23 44/9/23 43/59/23 41/58/23
f 68/41/36 38/40/36 37/17/36 69/16/36
f 54/36/37 61/39/37 60/64/37 52/63/37
f 58/55/38 55/54/38 57/62/38 59/65/38
f 62/52/39 49/51/39 51/57/39 63/56/39
f 42/50/40 67/53/40 66/60/40 43/59/40
f 64/38/41 46/37/41 48/43/41 65/42/41
f 14/6/1 13/73/1 72/80/1 73/78/1
f 31/68/1 32/46/1 76/49/1 78/85/1
usemtl ground
f 10/70/42 4/81/42 18/83/42 24/74/42
usemtl roof
f 19/47/43 32/46/43 31/68/43 20/67/43
f 75/84/44 80/87/44 76/49/44 82/48/44
f 72/80/45 71/79/45 77/88/45 79/89/45
f 77/88/46 78/85/46 76/49/46
f 80/87/47 81/44/47 79/89/47
f 76/49/42 80/87/42 79/89/42 77/88/42
f 72/80/48 79/89/48 81/44/48 73/78/48
f 74/45/49 81/44/49 80/87/49 75/84/49
f 70/86/50 78/85/50 77/88/50 71/79/50
