# Blender v2.91.0 OBJ File: 'wardrobe.blend'
# www.blender.org
mtllib wardrobe.mtl
o Plane
v -1.198266 0.260000 0.634206
v -1.198266 1.437440 0.634206
v -0.996487 3.123458 0.587916
v -0.996487 3.123458 0.428188
v -0.996487 0.000000 0.587916
v -1.147736 0.000000 0.428188
v -1.154094 0.287236 0.665599
v -0.053237 0.287236 0.665599
v -1.147736 3.292754 0.587916
v -0.226578 1.251202 0.666988
v -0.241720 1.236060 0.666988
v -0.241720 1.194691 0.666988
v -0.205893 1.174006 0.666988
v -0.170067 1.194691 0.666988
v -0.164524 1.215375 0.666988
v -0.241720 1.236060 0.713047
v -0.241720 1.194691 0.713047
v -0.226578 1.179549 0.713047
v -0.205893 1.174006 0.713047
v -0.185209 1.179549 0.713047
v -0.170067 1.194691 0.713047
v 0.996487 3.123458 0.428188
v 0.996487 0.000000 0.587916
v 1.147736 0.000000 0.428188
v 0.996487 0.000000 0.428188
v 0.053237 0.287236 0.665599
v 1.154094 1.407542 0.665599
v 0.053237 1.407542 0.665599
v 1.147736 3.292754 0.587916
v 0.241720 1.236060 0.666988
v 0.205893 1.174006 0.666988
v 0.170067 1.236060 0.666988
v 0.241720 1.194691 0.713047
v 0.226578 1.179549 0.713047
v 0.185209 1.179549 0.713047
v 0.170067 1.194691 0.713047
v 0.164524 1.215375 0.713047
v 0.170067 1.236060 0.713047
v 0.185209 1.251202 0.713047
v 1.198266 0.260000 0.634206
v 1.198266 1.437440 0.634206
v 1.147736 3.123458 0.587916
v 0.996487 3.123458 0.587916
v 1.147736 3.123458 0.428188
v 1.147736 0.000000 0.587916
v 1.154094 0.287236 0.665599
v 0.996487 3.292754 0.587916
v 1.147736 3.292754 0.428188
v 0.205893 1.256745 0.666988
v 0.226578 1.251202 0.666988
v 0.247262 1.215375 0.666988
v 0.241720 1.194691 0.666988
v 0.226578 1.179549 0.666988
v 0.185209 1.179549 0.666988
v 0.170067 1.194691 0.666988
v 0.164524 1.215375 0.666988
v 0.185209 1.251202 0.666988
v 0.205893 1.256745 0.713047
v 0.226578 1.251202 0.713047
v 0.241720 1.236060 0.713047
v 0.247262 1.215375 0.713047
v 0.205893 1.174006 0.713047
v 0.000000 0.260000 0.634206
v 0.000000 1.437440 0.634206
v -1.147736 3.123458 0.587916
v -1.147736 3.123458 0.428188
v -1.147736 0.000000 0.587916
v -0.996487 0.000000 0.428188
v -1.154094 1.407542 0.665599
v -0.053237 1.407542 0.665599
v -0.996487 3.292754 0.587916
v -1.147736 3.292754 0.428188
v -0.205893 1.256745 0.666988
v -0.247262 1.215375 0.666988
v -0.226578 1.179549 0.666988
v -0.185209 1.179549 0.666988
v -0.170067 1.236060 0.666988
v -0.185209 1.251202 0.666988
v -0.205893 1.256745 0.713047
v -0.226578 1.251202 0.713047
v -0.247262 1.215375 0.713047
v -0.164524 1.215375 0.713047
v -0.170067 1.236060 0.713047
v -0.185209 1.251202 0.713047
v -1.147736 3.123458 -0.587916
v -0.996487 3.123458 -0.587916
v -1.147736 0.000000 -0.587916
v -0.996487 0.000000 -0.587916
v -1.147736 0.000000 -0.428188
v -0.996487 3.292754 -0.587916
v -1.147736 3.292754 -0.428188
v 1.198266 1.437440 -0.625794
v 1.198266 0.260000 -0.625794
v 1.147736 3.123458 -0.587916
v 0.996487 3.123458 -0.587916
v 1.147736 3.123458 -0.428188
v 0.996487 3.123458 -0.428188
v 0.996487 0.000000 -0.587916
v 1.147736 0.000000 -0.428188
v 0.996487 0.000000 -0.428188
v 1.147736 3.292754 -0.587916
v 0.996487 3.292754 -0.587916
v 1.147736 0.000000 -0.587916
v 1.147736 3.292754 -0.428188
v -1.198266 1.437440 -0.625794
v -1.198266 0.260000 -0.625794
v -1.147736 3.123458 -0.428188
v -0.996487 3.123458 -0.428188
v -0.996487 0.000000 -0.428188
v -1.147736 3.292754 -0.587916
vt 0.000000 0.000000
vt 0.000000 0.000000
vt 0.000000 0.000000
vt 0.000000 0.000000
vt 0.000000 0.000000
vt 0.000000 0.000000
vt 0.000000 0.000000
vt 0.000000 0.000000
vt 0.000000 0.000000
vt 0.000000 0.000000
vt 0.000000 0.000000
vt 0.000000 0.000000
vt 0.000000 0.000000
vt 0.000000 0.000000
vt 0.000000 0.000000
vt 0.000000 0.000000
vt 0.000000 0.000000
vt 0.000000 0.000000
vt 0.000000 0.000000
vt 0.000000 0.000000
vt 0.000000 0.000000
vt 0.000000 0.000000
vt 0.000000 0.000000
vt 0.000000 0.000000
vt 0.000000 0.000000
vt 0.000000 0.000000
vt 0.000000 0.000000
vt 0.000000 0.000000
vt 0.000000 0.000000
vt 0.000000 0.000000
vt 0.000000 0.000000
vt 0.000000 0.000000
vt 0.000000 0.000000
vt 0.000000 0.000000
vt 0.000000 0.000000
vt 0.000000 0.000000
vt 0.000000 0.000000
vt 0.000000 0.000000
vt 0.000000 0.000000
vt 0.000000 0.000000
vt 0.000000 0.000000
vt 0.000000 0.000000
vt 0.000000 0.000000
vt 0.000000 0.000000
vt 0.000000 0.000000
vt 0.000000 0.000000
vt 0.000000 0.000000
vt 0.000000 0.000000
vt 1.000000 0.000000
vt 0.000000 0.000000
vt 0.000000 0.000000
vt 1.000000 0.000000
vt 0.000000 0.000000
vt 1.000000 0.000000
vt 0.000000 0.000000
vt 1.000000 0.000000
vt 1.000000 0.000000
vt 0.000000 0.000000
vt 0.000000 0.000000
vt 0.000000 0.000000
vt 1.000000 0.000000
vt 0.000000 0.000000
vt 0.000000 0.000000
vt 0.000000 0.000000
vt 0.000000 0.000000
vt 0.000000 0.000000
vt 0.000000 0.000000
vt 0.000000 1.000000
vt 1.000000 1.000000
vt 1.000000 0.000000
vt 0.000000 0.000000
vt 0.000000 0.000000
vt 0.000000 0.000000
vt 0.000000 0.000000
vt 0.000000 0.000000
vt 0.000000 0.000000
vt 0.000000 0.000000
vt 0.000000 0.000000
vt 0.000000 0.000000
vt 0.000000 0.000000
vt 0.000000 0.000000
vt 0.000000 0.000000
vt 0.000000 0.000000
vt 0.000000 0.000000
vt 0.000000 0.000000
vt 0.000000 0.000000
vt 0.000000 0.000000
vt 1.000000 0.000000
vt 1.000000 1.000000
vt 0.000000 1.000000
vt 0.000000 0.000000
vt 0.000000 0.000000
vt 0.000000 0.000000
vt 0.000000 0.000000
vt 0.000000 0.000000
vt 1.000000 0.000000
vt 1.000000 1.000000
vt 0.000000 1.000000
vt 0.000000 0.000000
vt 0.000000 0.000000
vt 0.000000 0.000000
vt 0.000000 0.000000
vt 0.000000 0.000000
vt 0.000000 1.000000
vt 1.000000 1.000000
vt 1.000000 0.000000
vt 0.000000 0.000000
vt 0.000000 0.000000
vt 0.000000 0.000000
vt 0.000000 0.000000
vn 0.5000 -0.8660 0.0000
vn 0.3786 -0.6557 0.6532
vn 0.0000 -0.7571 0.6532
vn 0.0000 -1.0000 0.0000
vn -0.8660 -0.5000 0.0000
vn -0.6557 -0.3786 0.6532
vn -0.7571 0.0000 0.6532
vn -1.0000 0.0000 0.0000
vn -0.5000 0.8660 0.0000
vn -0.3786 0.6557 0.6532
vn 0.0000 0.7571 0.6532
vn 0.0000 1.0000 0.0000
vn 0.8660 -0.5000 0.0000
vn 0.6557 -0.3786 0.6532
vn -0.5000 -0.8660 0.0000
vn -0.3786 -0.6557 0.6532
vn -0.8660 0.5000 0.0000
vn -0.6557 0.3786 0.6532
vn 1.0000 0.0000 0.0000
vn 0.7571 0.0000 0.6532
vn 0.8660 0.5000 0.0000
vn 0.6557 0.3786 0.6532
vn 0.3786 0.6557 0.6532
vn 0.5000 0.8660 0.0000
vn 0.0000 0.7241 0.6897
vn 0.0000 0.0000 1.0000
vn 0.0000 -0.7553 0.6553
vn 0.5079 0.0000 0.8614
vn -0.5793 0.0000 0.8151
vn -0.5079 0.0000 0.8614
vn 0.5793 0.0000 0.8151
vn 0.0000 0.0000 -1.0000
usemtl knob
s 1
f 76/1/1 20/2/2 19/3/3 13/4/4
f 12/5/5 17/6/6 81/7/7 74/8/8
f 10/9/9 80/10/10 79/11/11 73/12/12
f 14/13/13 21/14/14 20/2/2 76/1/1
f 75/15/15 18/16/16 17/6/6 12/5/5
f 11/17/17 16/18/18 80/10/10 10/9/9
f 15/19/19 82/20/20 21/14/14 14/13/13
f 13/4/4 19/3/3 18/16/16 75/15/15
f 74/8/8 81/7/7 16/18/18 11/17/17
f 77/21/21 83/22/22 82/20/20 15/19/19
f 80/10/10 16/18/18 81/7/7 17/6/6 18/16/16 19/3/3 20/2/2 21/14/14 82/20/20 83/22/22 84/23/23 79/11/11
f 54/24/15 31/25/4 62/26/3 35/27/16
f 52/28/13 51/29/19 61/30/20 33/31/14
f 57/32/9 32/33/17 38/34/18 39/35/10
f 55/36/5 54/24/15 35/27/16 36/37/6
f 53/38/1 52/28/13 33/31/14 34/39/2
f 49/40/12 57/32/9 39/35/10 58/41/11
f 30/42/21 50/43/24 59/44/23 60/45/22
f 56/46/8 55/36/5 36/37/6 37/47/7
f 31/25/4 53/38/1 34/39/2 62/26/3
f 51/29/19 30/42/21 60/45/22 61/30/20
f 32/33/17 56/46/8 37/47/7 38/34/18
f 59/44/23 58/41/11 39/35/10 38/34/18 37/47/7 36/37/6 35/27/16 62/26/3 34/39/2 33/31/14 61/30/20 60/45/22
f 50/43/24 49/40/12 58/41/11 59/44/23
f 78/48/24 84/23/23 83/22/22 77/21/21
f 73/12/12 79/11/11 84/23/23 78/48/24
usemtl Base
s off
f 64/49/25 2/50/25 69/51/25 70/52/25
f 7/53/26 8/54/26 70/52/26 69/51/26
f 1/55/27 63/56/27 8/54/27 7/53/27
f 63/56/28 64/49/28 70/52/28 8/54/28
f 2/50/29 1/55/29 7/53/29 69/51/29
f 64/49/25 28/57/25 27/58/25 41/59/25
f 46/60/26 27/58/26 28/57/26 26/61/26
f 40/62/27 46/60/27 26/61/27 63/56/27
f 63/56/30 26/61/30 28/57/30 64/49/30
f 41/59/31 27/58/31 46/60/31 40/62/31
f 1/55/8 2/50/8 105/63/8 106/64/8
f 93/65/32 106/64/32 105/63/32 92/66/32
f 41/59/19 40/62/19 93/65/19 92/66/19
f 64/49/12 41/59/12 92/66/12 105/63/12 2/50/12
f 1/55/4 106/64/4 93/65/4 40/62/4 63/56/4
usemtl frame
f 67/67/4 6/68/4 68/69/4 5/70/4
f 6/68/8 67/67/8 65/71/8 66/72/8
f 67/67/26 5/70/26 3/73/26 65/71/26
f 3/73/19 5/70/19 68/69/19 4/74/19
f 68/69/32 6/68/32 66/72/32 4/74/32
f 4/74/4 66/72/4 107/75/4 108/76/4 86/77/4 95/78/4 97/79/4 96/80/4 44/81/4 22/82/4 43/83/4 3/73/4
f 3/73/26 71/84/26 9/85/26 65/71/26
f 65/71/8 9/85/8 72/86/8 66/72/8
f 45/87/4 23/88/4 25/89/4 24/90/4
f 24/90/19 44/81/19 42/91/19 45/87/19
f 45/87/26 42/91/26 43/83/26 23/88/26
f 43/83/8 22/82/8 25/89/8 23/88/8
f 25/89/32 22/82/32 44/81/32 24/90/32
f 43/83/26 42/91/26 29/92/26 47/93/26
f 42/91/19 44/81/19 48/94/19 29/92/19
f 87/95/4 88/96/4 109/97/4 89/98/4
f 89/98/8 107/75/8 85/99/8 87/95/8
f 87/95/32 85/99/32 86/77/32 88/96/32
f 86/77/19 108/76/19 109/97/19 88/96/19
f 109/97/26 108/76/26 107/75/26 89/98/26
f 86/77/32 85/99/32 110/100/32 90/101/32
f 85/99/8 107/75/8 91/102/8 110/100/8
f 103/103/4 99/104/4 100/105/4 98/106/4
f 99/104/19 103/103/19 94/107/19 96/80/19
f 103/103/32 98/106/32 95/78/32 94/107/32
f 95/78/8 98/106/8 100/105/8 97/79/8
f 100/105/26 99/104/26 96/80/26 97/79/26
f 95/78/32 102/108/32 101/109/32 94/107/32
f 94/107/19 101/109/19 104/110/19 96/80/19
f 44/81/19 96/80/19 104/110/19 48/94/19
f 86/77/32 90/101/32 102/108/32 95/78/32
f 107/75/8 66/72/8 72/86/8 91/102/8
f 43/83/26 47/93/26 71/84/26 3/73/26
f 102/108/12 90/101/12 110/100/12 91/102/12 72/86/12 9/85/12 71/84/12 47/93/12 29/92/12 48/94/12 104/110/12 101/109/12
o Circle.001
v 1.070439 2.737891 0.004347
v 1.070440 2.730302 -0.023976
v 1.070440 2.709568 -0.044710
v 1.070439 2.681245 -0.052299
v 1.070439 2.652922 -0.044710
v 1.070439 2.632188 -0.023976
v 1.070439 2.624599 0.004347
v 1.070439 2.632188 0.032670
v 1.070439 2.652922 0.053404
v 1.070439 2.681245 0.060993
v 1.070440 2.709568 0.053404
v 1.070440 2.730302 0.032670
v -1.070440 2.737891 0.004347
v -1.070439 2.730302 -0.023976
v -1.070439 2.709568 -0.044710
v -1.070440 2.681245 -0.052299
v -1.070440 2.652922 -0.044710
v -1.070440 2.632188 -0.023976
v -1.070440 2.624599 0.004347
v -1.070440 2.632188 0.032670
v -1.070439 2.652922 0.053404
v -1.070439 2.681245 0.060993
v -1.070438 2.709568 0.053404
v -1.070438 2.730302 0.032670
vt 0.000000 0.000000
vt 0.000000 0.000000
vt 0.000000 0.000000
vt 0.000000 0.000000
vt 0.000000 0.000000
vt 0.000000 0.000000
vt 0.000000 0.000000
vt 0.000000 0.000000
vt 0.000000 0.000000
vt 0.000000 0.000000
vt 0.000000 0.000000
vt 0.000000 0.000000
vt 0.000000 0.000000
vt 0.000000 0.000000
vt 0.000000 0.000000
vt 0.000000 0.000000
vt 0.000000 0.000000
vt 0.000000 0.000000
vt 0.000000 0.000000
vt 0.000000 0.000000
vt 0.000000 0.000000
vt 0.000000 0.000000
vt 0.000000 0.000000
vt 0.000000 0.000000
vn -0.6532 0.6557 -0.3786
vn -0.6532 0.7572 0.0000
vn 0.6532 0.7571 0.0000
vn 0.6532 0.6557 -0.3786
vn -0.6532 0.3786 0.6557
vn -0.6532 0.0000 0.7572
vn 0.6532 0.0000 0.7571
vn 0.6532 0.3786 0.6557
vn -0.6532 -0.6557 -0.3786
vn -0.6532 -0.3786 -0.6557
vn 0.6532 -0.3786 -0.6557
vn 0.6532 -0.6557 -0.3786
vn -0.6532 -0.6557 0.3786
vn -0.6532 -0.7572 0.0000
vn 0.6532 -0.7571 0.0000
vn 0.6532 -0.6557 0.3786
vn -0.6532 0.3786 -0.6557
vn 0.6532 0.3786 -0.6557
vn -0.6532 0.6557 0.3786
vn 0.6532 0.6557 0.3786
vn -0.6532 -0.3786 0.6557
vn 0.6532 -0.3786 0.6557
vn -0.6532 0.0000 -0.7572
vn 0.6532 0.0000 -0.7571
usemtl Material
s 1
f 118/111/33 117/112/34 129/113/35 130/114/36
f 115/115/37 114/116/38 126/117/39 127/118/40
f 122/119/41 121/120/42 133/121/43 134/122/44
f 112/123/45 111/124/46 123/125/47 124/126/48
f 119/127/49 118/111/33 130/114/36 131/128/50
f 116/129/51 115/115/37 127/118/40 128/130/52
f 111/124/46 122/119/41 134/122/44 123/125/47
f 113/131/53 112/123/45 124/126/48 125/132/54
f 120/133/55 119/127/49 131/128/50 132/134/56
f 117/112/34 116/129/51 128/130/52 129/113/35
f 114/116/38 113/131/53 125/132/54 126/117/39
f 121/120/42 120/133/55 132/134/56 133/121/43
f 124/126/48 123/125/47 134/122/44 133/121/43 132/134/56 131/128/50 130/114/36 129/113/35 128/130/52 127/118/40 126/117/39 125/132/54
f 112/123/45 113/131/53 114/116/38 115/115/37 116/129/51 117/112/34 118/111/33 119/127/49 120/133/55 121/120/42 122/119/41 111/124/46
o Circle.002
v -0.813313 2.697936 0.004347
v -0.818596 2.697936 -0.015371
v -0.833031 2.697936 -0.029806
v -0.852749 2.697936 -0.035089
v -0.872467 2.697936 -0.029806
v -0.886902 2.697936 -0.015371
v -0.892185 2.697936 0.004347
v -0.886902 2.697936 0.024065
v -0.872467 2.697936 0.038500
v -0.852749 2.697936 0.043783
v -0.833031 2.697936 0.038500
v -0.818596 2.697936 0.024065
v -0.813313 3.169254 0.004347
v -0.818596 3.169254 -0.015371
v -0.833031 3.169254 -0.029806
v -0.852749 3.169254 -0.035089
v -0.872467 3.169254 -0.029805
v -0.886902 3.169254 -0.015371
v -0.892185 3.169254 0.004347
v -0.886902 3.169254 0.024065
v -0.872467 3.169254 0.038500
v -0.852749 3.169254 0.043783
v -0.833031 3.169254 0.038500
v -0.818596 3.169254 0.024065
v 0.813313 2.697936 0.004347
v 0.818596 2.697936 -0.015371
v 0.833031 2.697936 -0.029806
v 0.852749 2.697936 -0.035089
v 0.872467 2.697936 -0.029806
v 0.886902 2.697936 -0.015371
v 0.892185 2.697936 0.004347
v 0.886902 2.697936 0.024065
v 0.872467 2.697936 0.038499
v 0.852749 2.697936 0.043783
v 0.833031 2.697936 0.038499
v 0.818596 2.697936 0.024065
v 0.813313 3.169255 0.004347
v 0.818596 3.169254 -0.015371
v 0.833031 3.169255 -0.029806
v 0.852749 3.169255 -0.035089
v 0.872467 3.169255 -0.029806
v 0.886902 3.169255 -0.015371
v 0.892185 3.169255 0.004347
v 0.886902 3.169255 0.024065
v 0.872467 3.169255 0.038500
v 0.852749 3.169255 0.043783
v 0.833031 3.169255 0.038500
v 0.818596 3.169255 0.024065
vt 0.000000 0.000000
vt 0.000000 0.000000
vt 0.000000 0.000000
vt 0.000000 0.000000
vt 0.000000 0.000000
vt 0.000000 0.000000
vt 0.000000 0.000000
vt 0.000000 0.000000
vt 0.000000 0.000000
vt 0.000000 0.000000
vt 0.000000 0.000000
vt 0.000000 0.000000
vt 0.000000 0.000000
vt 0.000000 0.000000
vt 0.000000 0.000000
vt 0.000000 0.000000
vt 0.000000 0.000000
vt 0.000000 0.000000
vt 0.000000 0.000000
vt 0.000000 0.000000
vt 0.000000 0.000000
vt 0.000000 0.000000
vt 0.000000 0.000000
vt 0.000000 0.000000
vt 0.000000 0.000000
vt 0.000000 0.000000
vt 0.000000 0.000000
vt 0.000000 0.000000
vt 0.000000 0.000000
vt 0.000000 0.000000
vt 0.000000 0.000000
vt 0.000000 0.000000
vt 0.000000 0.000000
vt 0.000000 0.000000
vt 0.000000 0.000000
vt 0.000000 0.000000
vt 0.000000 0.000000
vt 0.000000 0.000000
vt 0.000000 0.000000
vt 0.000000 0.000000
vt 0.000000 0.000000
vt 0.000000 0.000000
vt 0.000000 0.000000
vt 0.000000 0.000000
vt 0.000000 0.000000
vt 0.000000 0.000000
vt 0.000000 0.000000
vt 0.000000 0.000000
vn 0.8660 0.0000 -0.5000
vn 1.0000 0.0000 0.0000
vn 0.7571 -0.6532 0.0000
vn 0.6557 -0.6532 -0.3786
vn 0.5000 0.0000 0.8660
vn 0.0000 0.0000 1.0000
vn 0.0000 -0.6532 0.7571
vn 0.3786 -0.6532 0.6557
vn -0.8660 0.0000 -0.5000
vn -0.5000 0.0000 -0.8660
vn -0.3786 -0.6532 -0.6557
vn -0.6557 -0.6532 -0.3786
vn -0.8660 0.0000 0.5000
vn -1.0000 0.0000 0.0000
vn -0.7571 -0.6532 0.0000
vn -0.6557 -0.6532 0.3786
vn 0.5000 0.0000 -0.8660
vn 0.3786 -0.6532 -0.6557
vn 0.8660 0.0000 0.5000
vn 0.6557 -0.6532 0.3786
vn -0.5000 0.0000 0.8660
vn -0.3786 -0.6532 0.6557
vn 0.0000 0.0000 -1.0000
vn 0.0000 -0.6532 -0.7571
usemtl Material
s 1
f 142/135/57 141/136/58 153/137/59 154/138/60
f 139/139/61 138/140/62 150/141/63 151/142/64
f 146/143/65 145/144/66 157/145/67 158/146/68
f 136/147/69 135/148/70 147/149/71 148/150/72
f 143/151/73 142/135/57 154/138/60 155/152/74
f 140/153/75 139/139/61 151/142/64 152/154/76
f 135/148/70 146/143/65 158/146/68 147/149/71
f 137/155/77 136/147/69 148/150/72 149/156/78
f 144/157/79 143/151/73 155/152/74 156/158/80
f 141/136/58 140/153/75 152/154/76 153/137/59
f 138/140/62 137/155/77 149/156/78 150/141/63
f 145/144/66 144/157/79 156/158/80 157/145/67
f 148/150/72 147/149/71 158/146/68 157/145/67 156/158/80 155/152/74 154/138/60 153/137/59 152/154/76 151/142/64 150/141/63 149/156/78
f 166/159/65 178/160/68 177/161/71 165/162/70
f 163/163/77 175/164/78 174/165/63 162/166/62
f 170/167/57 182/168/60 181/169/74 169/170/73
f 160/171/75 172/172/76 171/173/59 159/174/58
f 167/175/66 179/176/67 178/160/68 166/159/65
f 164/177/69 176/178/72 175/164/78 163/163/77
f 159/174/58 171/173/59 182/168/60 170/167/57
f 161/179/61 173/180/64 172/172/76 160/171/75
f 168/181/79 180/182/80 179/176/67 167/175/66
f 165/162/70 177/161/71 176/178/72 164/177/69
f 162/166/62 174/165/63 173/180/64 161/179/61
f 169/170/73 181/169/74 180/182/80 168/181/79
f 172/172/76 173/180/64 174/165/63 175/164/78 176/178/72 177/161/71 178/160/68 179/176/67 180/182/80 181/169/74 182/168/60 171/173/59
