<?xml version="1.0" encoding="UTF-8" standalone="no"?>
<svg
   xmlns:dc="http://purl.org/dc/elements/1.1/"
   xmlns:cc="http://creativecommons.org/ns#"
   xmlns:rdf="http://www.w3.org/1999/02/22-rdf-syntax-ns#"
   xmlns:svg="http://www.w3.org/2000/svg"
   xmlns="http://www.w3.org/2000/svg"
   xmlns:sodipodi="http://sodipodi.sourceforge.net/DTD/sodipodi-0.dtd"
   xmlns:inkscape="http://www.inkscape.org/namespaces/inkscape"
   width="34.799999"
   height="34.799999"
   viewBox="0 0 9.2075001 9.2074995"
   version="1.1"
   id="svg854"
   inkscape:version="1.0.1 (3bc2e813f5, 2020-09-07)"
   sodipodi:docname="mouse.svg"
   inkscape:export-filename="/home/andreas/bitmap.png"
   inkscape:export-xdpi="55.172417"
   inkscape:export-ydpi="55.172417">
  <defs
     id="defs848" />
  <sodipodi:namedview
     id="base"
     pagecolor="#ffffff"
     bordercolor="#666666"
     borderopacity="1.0"
     inkscape:pageopacity="0.0"
     inkscape:pageshadow="2"
     inkscape:zoom="7.9195959"
     inkscape:cx="13.32154"
     inkscape:cy="34.865261"
     inkscape:document-units="mm"
     inkscape:current-layer="layer1"
     inkscape:document-rotation="0"
     showgrid="false"
     fit-margin-top="0"
     fit-margin-left="0"
     fit-margin-right="0"
     fit-margin-bottom="0"
     inkscape:window-width="1920"
     inkscape:window-height="1043"
     inkscape:window-x="0"
     inkscape:window-y="0"
     inkscape:window-maximized="1"
     units="px" />
  <metadata
     id="metadata851">
    <rdf:RDF>
      <cc:Work
         rdf:about="">
        <dc:format>image/svg+xml</dc:format>
        <dc:type
           rdf:resource="http://purl.org/dc/dcmitype/StillImage" />
        <dc:title></dc:title>
      </cc:Work>
    </rdf:RDF>
  </metadata>
  <g
     inkscape:label="Layer 1"
     inkscape:groupmode="layer"
     id="layer1">
    <path
       stroke="none"
       fill="#ffffff"
       d="m 8.1847861,0.19829891 c -0.1058261,-0.105833 -0.2337115,-0.15875 -0.383636,-0.15875 H 1.4513815 c -0.1411049,0 -0.2645704,0.05292 -0.3703966,0.15875 -0.10582607,0.105833 -0.15874417,0.229306 -0.15874417,0.370417 V 5.5561109 h 0.0132 c 0,1.023056 0.36158687,1.891771 1.08475047,2.606146 0.7143435,0.723195 1.5830319,1.084792 2.6060446,1.084792 h 0.0132 c 1.0230227,0 1.8961209,-0.361597 2.6192846,-1.084792 0.7143434,-0.714375 1.0715204,-1.58309 1.0715204,-2.606146 V 0.58194491 c 0,-0.149931 -0.048498,-0.277813 -0.1455147,-0.383646 M 5.2082746,1.8519449 C 5.0495304,1.6843759 4.8599173,1.6005909 4.6394353,1.6005909 c -0.2204819,0 -0.4056752,0.08379 -0.5555997,0.251354 -0.1587442,0.167569 -0.2381214,0.370417 -0.2381214,0.608542 v 1.971145 c 0,0.238125 0.079397,0.440973 0.2381214,0.608542 0.1499245,0.176389 0.3351178,0.264583 0.5555997,0.264583 0.220482,0 0.4100951,-0.08819 0.5688393,-0.264583 0.1499245,-0.167569 0.2248818,-0.370417 0.2248818,-0.608542 v -1.971145 c 0,-0.238125 -0.074997,-0.440973 -0.2248818,-0.608542 m 2.3282451,1.5875 H 6.2268775 v 0.992187 c -0.009,0.440973 -0.1543144,0.820209 -0.4365441,1.137709 -0.3174885,0.361597 -0.7011245,0.537985 -1.1508981,0.529166 -0.4585833,0.0088 -0.8466191,-0.171979 -1.1641176,-0.542396 l 0.026499,0.03969 C 3.2019577,5.2694819 3.0520332,4.8814259 3.0520332,4.4316339 V 3.4394469 H 1.7159418 V 0.83330091 H 7.5365597 V 3.4394469"
       id="path4"
       style="fill:#ffffff;stroke-width:0.264578"
       sodipodi:nodetypes="csssscccsssssccscsscscssccccccccsccccc" />
  </g>
</svg>
